# xmcd
#
# Track frame offsets:
#	150
#	10475
#	20937
#	32560
#	42462
#	52587
#	62360
#	67360
#	78462
#	93000
#
# Disc length: 1397 seconds
#
# Revision: 1
# Processed by: cddbd v1.5.2PL0 Copyright (c) Steve Scherf et al.
# Submitted via: audiograbber 1.83.01
#
DISCID=7c05730a
DTITLE=Various Artist - Christmas RFD
DYEAR=1900
DGENRE=Country
TTITLE0=Merle Haggard - Santa Claus Is Comin' To Town
TTITLE1=Tanya Tucker - Away In A Manger
TTITLE2=Johnny Cash - The Little Drummer Boy
TTITLE3=Willie Nelson - Jingle Bells
TTITLE4=Tammy Wynette - Joy To The World
TTITLE5=Slim Whitman - Winter Wonderland
TTITLE6=Sonny James - Silent Night
TTITLE7=George Jones - O Come All Ye Faithful
TTITLE8=Marty Robbins - O Little Town Of Bethlehem
TTITLE9=Mickey Gilley - Silver Bells
EXTD=
EXTT0=
EXTT1=
EXTT2=
EXTT3=
EXTT4=
EXTT5=
EXTT6=
EXTT7=
EXTT8=
EXTT9=
PLAYORDER=
